<mxfile host="Electron" agent="Mozilla/5.0 (Windows NT 10.0; Win64; x64) AppleWebKit/537.36 (KHTML, like Gecko) draw.io/26.2.2 Chrome/134.0.6998.178 Electron/35.1.2 Safari/537.36" version="26.2.2">
  <diagram id="C5RBs43oDa-KdzZeNtuy" name="Page-1">
    <mxGraphModel dx="1083" dy="735" grid="1" gridSize="10" guides="1" tooltips="1" connect="1" arrows="1" fold="1" page="1" pageScale="1" pageWidth="827" pageHeight="1169" math="0" shadow="0">
      <root>
        <mxCell id="WIyWlLk6GJQsqaUBKTNV-0" />
        <mxCell id="WIyWlLk6GJQsqaUBKTNV-1" parent="WIyWlLk6GJQsqaUBKTNV-0" />
        <mxCell id="uHDUAYWAHFrgPjSTyLu--2" value="" style="edgeStyle=orthogonalEdgeStyle;rounded=0;orthogonalLoop=1;jettySize=auto;html=1;" edge="1" parent="WIyWlLk6GJQsqaUBKTNV-1">
          <mxGeometry relative="1" as="geometry">
            <mxPoint x="351.75" y="430" as="sourcePoint" />
            <mxPoint x="351.75" y="495" as="targetPoint" />
          </mxGeometry>
        </mxCell>
        <mxCell id="uHDUAYWAHFrgPjSTyLu--4" value="" style="edgeStyle=orthogonalEdgeStyle;rounded=0;orthogonalLoop=1;jettySize=auto;html=1;" edge="1" parent="WIyWlLk6GJQsqaUBKTNV-1" source="uHDUAYWAHFrgPjSTyLu--1" target="uHDUAYWAHFrgPjSTyLu--3">
          <mxGeometry relative="1" as="geometry" />
        </mxCell>
        <mxCell id="uHDUAYWAHFrgPjSTyLu--1" value="QMI8658_Init" style="whiteSpace=wrap;html=1;" vertex="1" parent="WIyWlLk6GJQsqaUBKTNV-1">
          <mxGeometry x="292" y="495" width="120" height="60" as="geometry" />
        </mxCell>
        <mxCell id="uHDUAYWAHFrgPjSTyLu--6" value="" style="edgeStyle=orthogonalEdgeStyle;rounded=0;orthogonalLoop=1;jettySize=auto;html=1;" edge="1" parent="WIyWlLk6GJQsqaUBKTNV-1" source="uHDUAYWAHFrgPjSTyLu--3" target="uHDUAYWAHFrgPjSTyLu--5">
          <mxGeometry relative="1" as="geometry" />
        </mxCell>
        <mxCell id="uHDUAYWAHFrgPjSTyLu--3" value="QMC5883_Init" style="whiteSpace=wrap;html=1;" vertex="1" parent="WIyWlLk6GJQsqaUBKTNV-1">
          <mxGeometry x="292" y="635" width="120" height="60" as="geometry" />
        </mxCell>
        <mxCell id="uHDUAYWAHFrgPjSTyLu--8" value="" style="edgeStyle=orthogonalEdgeStyle;rounded=0;orthogonalLoop=1;jettySize=auto;html=1;" edge="1" parent="WIyWlLk6GJQsqaUBKTNV-1" source="uHDUAYWAHFrgPjSTyLu--5" target="uHDUAYWAHFrgPjSTyLu--7">
          <mxGeometry relative="1" as="geometry" />
        </mxCell>
        <mxCell id="uHDUAYWAHFrgPjSTyLu--5" value="1" style="rhombus;whiteSpace=wrap;html=1;" vertex="1" parent="WIyWlLk6GJQsqaUBKTNV-1">
          <mxGeometry x="312" y="765" width="80" height="80" as="geometry" />
        </mxCell>
        <mxCell id="uHDUAYWAHFrgPjSTyLu--11" value="" style="edgeStyle=orthogonalEdgeStyle;rounded=0;orthogonalLoop=1;jettySize=auto;html=1;" edge="1" parent="WIyWlLk6GJQsqaUBKTNV-1" source="uHDUAYWAHFrgPjSTyLu--7" target="uHDUAYWAHFrgPjSTyLu--10">
          <mxGeometry relative="1" as="geometry" />
        </mxCell>
        <mxCell id="uHDUAYWAHFrgPjSTyLu--12" value="GyroRaw" style="edgeLabel;html=1;align=center;verticalAlign=middle;resizable=0;points=[];" vertex="1" connectable="0" parent="uHDUAYWAHFrgPjSTyLu--11">
          <mxGeometry x="-0.0921" y="-1" relative="1" as="geometry">
            <mxPoint as="offset" />
          </mxGeometry>
        </mxCell>
        <mxCell id="uHDUAYWAHFrgPjSTyLu--7" value="QMI8658_dataGet&lt;div&gt;get init sensor data&lt;/div&gt;" style="whiteSpace=wrap;html=1;" vertex="1" parent="WIyWlLk6GJQsqaUBKTNV-1">
          <mxGeometry x="292" y="935" width="120" height="60" as="geometry" />
        </mxCell>
        <mxCell id="uHDUAYWAHFrgPjSTyLu--9" value="&lt;span style=&quot;text-align: left;&quot;&gt;sensorsTask&lt;/span&gt;" style="rounded=1;whiteSpace=wrap;html=1;" vertex="1" parent="WIyWlLk6GJQsqaUBKTNV-1">
          <mxGeometry x="292" y="370" width="120" height="60" as="geometry" />
        </mxCell>
        <mxCell id="uHDUAYWAHFrgPjSTyLu--14" value="" style="edgeStyle=orthogonalEdgeStyle;rounded=0;orthogonalLoop=1;jettySize=auto;html=1;" edge="1" parent="WIyWlLk6GJQsqaUBKTNV-1" source="uHDUAYWAHFrgPjSTyLu--10" target="uHDUAYWAHFrgPjSTyLu--13">
          <mxGeometry relative="1" as="geometry" />
        </mxCell>
        <mxCell id="uHDUAYWAHFrgPjSTyLu--10" value="imu_GetGyroBias" style="whiteSpace=wrap;html=1;" vertex="1" parent="WIyWlLk6GJQsqaUBKTNV-1">
          <mxGeometry x="292" y="1075" width="120" height="60" as="geometry" />
        </mxCell>
        <mxCell id="uHDUAYWAHFrgPjSTyLu--13" value="imu_FillGyroBuffer" style="text;whiteSpace=wrap;" vertex="1" parent="WIyWlLk6GJQsqaUBKTNV-1">
          <mxGeometry x="460" y="1140" width="130" height="40" as="geometry" />
        </mxCell>
        <mxCell id="uHDUAYWAHFrgPjSTyLu--17" value="" style="edgeStyle=orthogonalEdgeStyle;rounded=0;orthogonalLoop=1;jettySize=auto;html=1;" edge="1" parent="WIyWlLk6GJQsqaUBKTNV-1" source="uHDUAYWAHFrgPjSTyLu--15" target="uHDUAYWAHFrgPjSTyLu--16">
          <mxGeometry relative="1" as="geometry" />
        </mxCell>
        <mxCell id="uHDUAYWAHFrgPjSTyLu--15" value="gstGyroBiasBuffer.FindBias" style="text;whiteSpace=wrap;" vertex="1" parent="WIyWlLk6GJQsqaUBKTNV-1">
          <mxGeometry x="460" y="1190" width="180" height="40" as="geometry" />
        </mxCell>
        <mxCell id="uHDUAYWAHFrgPjSTyLu--19" value="" style="edgeStyle=orthogonalEdgeStyle;rounded=0;orthogonalLoop=1;jettySize=auto;html=1;" edge="1" parent="WIyWlLk6GJQsqaUBKTNV-1" source="uHDUAYWAHFrgPjSTyLu--16" target="uHDUAYWAHFrgPjSTyLu--18">
          <mxGeometry relative="1" as="geometry" />
        </mxCell>
        <mxCell id="uHDUAYWAHFrgPjSTyLu--16" value="Intgrate error compensate gyro data" style="whiteSpace=wrap;html=1;" vertex="1" parent="WIyWlLk6GJQsqaUBKTNV-1">
          <mxGeometry x="490" y="1300" width="120" height="60" as="geometry" />
        </mxCell>
        <mxCell id="uHDUAYWAHFrgPjSTyLu--21" value="" style="edgeStyle=orthogonalEdgeStyle;rounded=0;orthogonalLoop=1;jettySize=auto;html=1;" edge="1" parent="WIyWlLk6GJQsqaUBKTNV-1" source="uHDUAYWAHFrgPjSTyLu--18" target="uHDUAYWAHFrgPjSTyLu--20">
          <mxGeometry relative="1" as="geometry" />
        </mxCell>
        <mxCell id="uHDUAYWAHFrgPjSTyLu--18" value="calculate quade &amp;amp;&amp;nbsp;&lt;div&gt;normalize&lt;/div&gt;" style="whiteSpace=wrap;html=1;" vertex="1" parent="WIyWlLk6GJQsqaUBKTNV-1">
          <mxGeometry x="490" y="1440" width="120" height="60" as="geometry" />
        </mxCell>
        <mxCell id="uHDUAYWAHFrgPjSTyLu--20" value="calculate rotate array&lt;div&gt;&amp;amp; calculate oula angle&lt;/div&gt;" style="whiteSpace=wrap;html=1;" vertex="1" parent="WIyWlLk6GJQsqaUBKTNV-1">
          <mxGeometry x="490" y="1580" width="120" height="60" as="geometry" />
        </mxCell>
        <mxCell id="uHDUAYWAHFrgPjSTyLu--22" value="" style="endArrow=classic;html=1;rounded=0;exitX=1.006;exitY=0.611;exitDx=0;exitDy=0;exitPerimeter=0;entryX=1;entryY=0.5;entryDx=0;entryDy=0;" edge="1" parent="WIyWlLk6GJQsqaUBKTNV-1" source="uHDUAYWAHFrgPjSTyLu--20" target="uHDUAYWAHFrgPjSTyLu--5">
          <mxGeometry width="50" height="50" relative="1" as="geometry">
            <mxPoint x="240" y="1490" as="sourcePoint" />
            <mxPoint x="290" y="1440" as="targetPoint" />
            <Array as="points">
              <mxPoint x="710" y="1600" />
              <mxPoint x="720" y="1200" />
              <mxPoint x="710" y="805" />
            </Array>
          </mxGeometry>
        </mxCell>
      </root>
    </mxGraphModel>
  </diagram>
</mxfile>
